<?xml version="1.0" standalone="no"?>
<!DOCTYPE svg PUBLIC "-//W3C//DTD SVG 1.1//EN" "http://www.w3.org/Graphics/SVG/1.1/DTD/svg11.dtd" >
<svg>
<metadata>
Created by FontForge 20110222 at Tue May 20 15:17:07 2014
 By deploy user
Copyright 1996 TypeMarket, (095)142-77-12, Designer: S. Shanovich
</metadata>
<defs>
<font id="HeliosExtThin" horiz-adv-x="653" >
  <font-face 
    font-family="HeliosExtThin"
    font-weight="400"
    font-stretch="normal"
    units-per-em="1000"
    panose-1="2 0 5 5 2 0 0 2 0 4"
    ascent="800"
    descent="-200"
    x-height="524"
    cap-height="726"
    bbox="-54 -256 1228 1000"
    underline-thickness="51"
    underline-position="-45"
    unicode-range="U+0020-2122"
  />
<missing-glyph horiz-adv-x="500" 
 />
    <glyph glyph-name=".notdef" horiz-adv-x="500" 
 />
    <glyph glyph-name=".null" horiz-adv-x="0" 
 />
    <glyph glyph-name="nonmarkingreturn" horiz-adv-x="305" 
 />
    <glyph glyph-name="space" unicode=" " horiz-adv-x="305" 
 />
    <glyph glyph-name="space" unicode="&#xa0;" horiz-adv-x="305" 
 />
    <glyph glyph-name="numbersign" unicode="#" horiz-adv-x="781" 
d="M344 463h177l89 251h26l-89 -251h165l-4 -14h-166l-65 -186h175l-4 -14h-176l-88 -249h-26l89 249h-181l-89 -249h-25l88 249h-170l4 14h170l68 186h-184l5 14h182l90 251h25zM337 449l-65 -186h178l65 186h-178z" />
    <glyph glyph-name="dollar" unicode="$" horiz-adv-x="654" 
d="M80 193q7 -71 67.5 -118t172.5 -51v323q-70 8 -119 22.5t-80 36t-45 51t-14 66.5q0 78 62.5 129t195.5 57v82h16v-82q69 -3 118 -16t81.5 -34.5t48.5 -50.5t18 -64h-34q-7 58 -66 98.5t-166 44.5v-316q78 -9 130.5 -21.5t85 -32.5t46.5 -49t14 -72q0 -91 -65 -140.5
t-211 -56.5v-93h-16v93q-68 3 -118.5 18t-84.5 40t-52 59.5t-21 76.5h36zM320 690q-53 -3 -94 -16t-69 -34t-42.5 -48.5t-14.5 -59.5q0 -71 53 -106t167 -51v315zM336 25q118 2 179 45.5t61 115.5q0 40 -13.5 66.5t-43 44t-75 27.5t-108.5 17v-316z" />
    <glyph glyph-name="percent" horiz-adv-x="855" 
d="M49 545q0 94 37.5 138t115.5 44t115.5 -43.5t37.5 -138.5t-37.5 -139.5t-115.5 -44.5t-115.5 45t-37.5 139zM70 545q0 -82 35 -128.5t97 -46.5q63 0 97 46.5t34 128.5q0 81 -34 127t-97 46q-62 0 -97 -46t-35 -127zM500 163q0 94 38 139t116 45t115 -44.5t37 -139.5
t-37 -139t-115 -44t-116 44.5t-38 138.5zM523 163q0 -81 34.5 -127t96.5 -46q63 0 97 46t34 127q0 82 -34 128t-97 46q-62 0 -96.5 -46t-34.5 -128zM632 727h17l-426 -747h-17z" />
    <glyph glyph-name="ampersand" unicode="&#x26;" horiz-adv-x="754" 
d="M285 397q-96 -46 -143.5 -94.5t-47.5 -112.5q0 -38 16.5 -71.5t45.5 -59.5t70 -41t91 -15q70 0 132.5 28.5t126.5 94.5zM598 107q-65 -68 -131.5 -97.5t-146.5 -29.5q-62 0 -111.5 15.5t-83.5 43.5t-52 66t-18 82q0 34 11 63t36.5 56t66 54t99.5 56q-30 29 -50 52.5
t-32 43.5t-17.5 38t-5.5 36q0 68 40.5 104.5t115.5 36.5q73 0 114 -36t41 -96q0 -26 -8 -48t-27 -43.5t-50 -43.5t-76 -48l282 -262q56 115 62 171h34q-2 -35 -19 -82.5t-55 -108.5l132 -130h-39zM294 434q75 38 111.5 76.5t36.5 84.5q0 22 -9.5 42t-26.5 35.5t-40 24.5
t-49 9t-49 -9t-40 -24.5t-27 -36.5t-10 -46q0 -34 26 -75t77 -81z" />
    <glyph glyph-name="quotesingle" unicode="'" horiz-adv-x="114" 
d="M64 458h-13v246h13v-246z" />
    <glyph glyph-name="parenleft" unicode="(" horiz-adv-x="288" 
d="M274 733q-36 -51 -66.5 -107t-53 -116t-35 -122.5t-12.5 -126.5t12.5 -126t35 -121t53 -114.5t66.5 -106.5h-21q-93 121 -141 235.5t-48 232.5q0 119 48 235.5t141 236.5h21v0z" />
    <glyph glyph-name="parenright" unicode=")" horiz-adv-x="288" 
d="M24 -204q72 102 114 219.5t42 245.5q0 64 -11.5 126.5t-32.5 122.5t-50.5 116t-65.5 107h21q93 -120 137.5 -236.5t44.5 -235.5q0 -118 -44.5 -232.5t-137.5 -235.5h-21z" />
    <glyph glyph-name="asterisk" unicode="*" horiz-adv-x="494" 
d="M137 460l90 121l-142 46l6 23l143 -45v148h26v-148l143 45l6 -23l-142 -46l90 -121l-23 -17l-87 122l-87 -122z" />
    <glyph glyph-name="plus" unicode="+" horiz-adv-x="847" 
d="M438 313h277v-30h-277v-279h-30v279h-276v30h276v274h30v-274z" />
    <glyph glyph-name="comma" unicode="," horiz-adv-x="306" 
d="M130 72h47v-124q0 -52 -10.5 -75.5t-36.5 -31.5v28q17 10 20 25.5t3 38.5v67h-23v72z" />
    <glyph glyph-name="hyphen" unicode="-" horiz-adv-x="455" 
d="M59 273h337v-26h-337v26z" />
    <glyph glyph-name="period" unicode="." horiz-adv-x="306" 
d="M130 50h47v-50h-47v50z" />
    <glyph glyph-name="slash" unicode="/" horiz-adv-x="308" 
d="M0 -98l284 844h24l-285 -844h-23z" />
    <glyph glyph-name="zero" unicode="0" horiz-adv-x="654" 
d="M56 357q0 189 69 279t202 90t201.5 -90t68.5 -279t-68.5 -279t-201.5 -90t-202 90t-69 279zM92 357q0 -168 60 -254t175 -86t174.5 86t59.5 254t-59.5 253.5t-174.5 85.5t-175 -85.5t-60 -253.5z" />
    <glyph glyph-name="one" unicode="1" horiz-adv-x="442" 
d="M290 637q-15 -28 -41.5 -43.5t-58.5 -23t-66 -9t-62 -1.5v28h56q44 0 76.5 11.5t53.5 30.5t31.5 44t10.5 52h36v-726h-36v637z" />
    <glyph glyph-name="two" unicode="2" 
d="M53 0q3 49 20.5 86t51.5 73q23 25 75.5 57t133.5 78q53 30 92.5 51.5t59.5 41.5q32 29 46 60.5t14 71.5t-15.5 73t-43 56.5t-67 36t-87.5 12.5q-54 0 -97 -14.5t-73 -40.5t-46 -62.5t-16 -79.5h-36q0 48 18.5 89t53 71.5t84 48t110.5 17.5q122 0 186.5 -56t64.5 -153
q0 -44 -14 -76t-41 -59t-67.5 -51.5t-94.5 -54.5q-59 -33 -108 -61.5t-84 -57t-56 -59t-24 -67.5h482v-31h-522v0z" />
    <glyph glyph-name="three" unicode="3" 
d="M88 205q0 -42 16.5 -76.5t47.5 -58.5t75.5 -37.5t99.5 -13.5q108 0 168.5 48.5t60.5 133.5q0 35 -18 64t-51.5 50t-81 32.5t-105.5 11.5h-27v28h27q36 0 76.5 8.5t74 27.5t55.5 48.5t22 71.5q0 77 -53.5 115.5t-150.5 38.5q-46 0 -85 -13t-67 -37t-44 -57t-16 -72h-36
q0 45 17 83t49 66t78.5 43.5t105.5 15.5q121 0 179.5 -45.5t58.5 -130.5q0 -31 -13 -62.5t-38 -57t-60.5 -41.5t-81.5 -16q52 0 94 -14t70.5 -38t44 -55t15.5 -65q0 -101 -66 -157t-201 -56q-68 0 -120 15.5t-86.5 44t-52 68.5t-17.5 89h36z" />
    <glyph glyph-name="four" unicode="4" 
d="M440 195h-411v28l401 503h44v-503h130v-28h-130v-195h-34v195zM440 687l-373 -464h373v464z" />
    <glyph glyph-name="five" unicode="5" horiz-adv-x="654" 
d="M104 170q6 -32 23 -60t45.5 -49t67.5 -33t87 -12q54 0 98.5 17.5t76.5 48t50 71t18 86.5q0 98 -63 151.5t-174 53.5q-42 0 -73.5 -8t-56.5 -21t-44 -30t-36 -36h-37l64 376h404v-29h-377l-54 -308q35 41 93.5 62.5t131.5 21.5q122 0 190 -60t68 -169q0 -57 -18.5 -104
t-54.5 -81t-89 -52.5t-121 -18.5q-58 0 -103 14t-77 38.5t-51 58t-26 72.5h38z" />
    <glyph glyph-name="six" unicode="6" 
d="M95 285q9 48 35.5 81t63.5 52.5t79.5 28t83.5 8.5q121 0 186 -62t65 -172q0 -112 -71 -172.5t-204 -60.5q-74 0 -126.5 20.5t-86 64.5t-49.5 112t-16 164q0 195 70 286t222 91q54 0 97 -12.5t73.5 -33t47 -47.5t18.5 -57h-36q-10 54 -64 87.5t-140 33.5
q-124 0 -188 -81.5t-64 -240.5v-90h4zM107 220q0 -47 17 -84.5t47 -63.5t72 -40.5t93 -14.5q53 0 96.5 14.5t74.5 41t48 64.5t17 85t-16 85t-45 64.5t-70 41t-91 14.5q-55 0 -100 -15t-76.5 -42t-49 -65t-17.5 -85z" />
    <glyph glyph-name="seven" unicode="7" 
d="M230 0q17 84 44 170.5t67.5 173.5t97.5 175.5t134 177.5h-503v29h539v-29q-67 -82 -124.5 -168t-102 -174.5t-74.5 -178t-42 -176.5h-36v0z" />
    <glyph glyph-name="eight" unicode="8" horiz-adv-x="654" 
d="M274 389q-58 8 -94 25t-55.5 40t-26.5 50t-7 55q0 80 59.5 123.5t176.5 43.5t176.5 -43.5t59.5 -123.5q0 -30 -7.5 -56.5t-27 -49t-54 -39t-87.5 -25.5q58 -5 98 -23t65.5 -45t37 -61.5t11.5 -73.5q0 -97 -67 -147.5t-205 -50.5t-205 50.5t-67 147.5q0 39 11.5 73.5
t37.5 61.5t67.5 45t101.5 23h1zM127 549q0 -70 53 -108t147 -38t147 38t53 108q0 72 -52.5 110t-147.5 38t-147.5 -38t-52.5 -110zM91 194q0 -85 63.5 -131t173.5 -46t172.5 46t62.5 131q0 41 -17 74.5t-48 57t-74.5 36.5t-96.5 13t-96.5 -13t-74.5 -36.5t-48 -57t-17 -74.5
z" />
    <glyph glyph-name="nine" unicode="9" 
d="M559 429q-12 -55 -41 -88.5t-66 -51.5t-78 -24t-77 -6q-121 0 -186 62t-65 172q0 112 71 172.5t204 60.5q73 0 126 -20.5t86.5 -64.5t49.5 -112t16 -164q0 -195 -70.5 -286t-221.5 -91q-54 0 -97 12.5t-73.5 33t-47 47.5t-18.5 57h36q10 -54 64 -87.5t140 -33.5
q124 0 188 81.5t64 240.5v90h-4zM547 494q0 46 -17 84t-47 64t-72 40.5t-93 14.5q-53 0 -96.5 -14.5t-74.5 -41t-48 -64.5t-17 -85t16 -85t45 -64.5t70 -41t91 -14.5q55 0 100 15t76.5 42t49 65t17.5 85z" />
    <glyph glyph-name="colon" unicode=":" horiz-adv-x="294" 
d="M124 488h47v-51h-47v51zM124 51h47v-51h-47v51z" />
    <glyph glyph-name="semicolon" unicode=";" horiz-adv-x="294" 
d="M124 52h47v-104q0 -52 -10.5 -75.5t-36.5 -31.5v28q17 10 20 25.5t3 38.5v67h-23v52zM124 488h47v-52h-47v52z" />
    <glyph glyph-name="less" unicode="&#x3c;" horiz-adv-x="848" 
d="M136 305l573 231v-33l-538 -209l538 -209v-33l-573 232v21z" />
    <glyph glyph-name="equal" unicode="=" horiz-adv-x="847" 
d="M715 387h-583v24h583v-24zM715 193h-583v24h583v-24z" />
    <glyph glyph-name="greater" unicode="&#x3e;" horiz-adv-x="848" 
d="M135 52v33l538 209l-538 209v33l573 -231v-21z" />
    <glyph glyph-name="question" unicode="?" horiz-adv-x="586" 
d="M355 309q-34 -26 -53.5 -53t-19.5 -72h-41v12q0 25 5 43t16 33t27.5 29.5t39.5 32.5q30 24 58.5 44.5t50.5 43.5t35 51t13 66q0 39 -15 72t-42.5 56.5t-66 37t-85.5 13.5t-86 -15.5t-67 -41.5t-43.5 -61t-15.5 -75h-41q2 106 67 164t183 58q124 0 188.5 -56t64.5 -153
q0 -32 -7 -58.5t-24 -49.5q-25 -36 -62 -62.5t-79 -58.5zM238 52h48v-52h-48v52z" />
    <glyph glyph-name="at" unicode="@" horiz-adv-x="1024" 
d="M647 355q-11 50 -41.5 76.5t-79.5 26.5q-39 0 -72.5 -18.5t-57.5 -51t-38 -76.5t-14 -96q0 -60 29.5 -93t81.5 -33q57 0 100.5 37t59.5 99zM599 153q-24 -45 -62.5 -69.5t-81.5 -24.5q-78 0 -117.5 41t-39.5 119q0 58 18.5 107.5t49.5 86t72.5 57t88.5 20.5q98 0 128 -88
l31 68h33l-69 -273q-5 -21 -8.5 -36t-3.5 -23q0 -23 16 -35.5t47 -12.5q34 0 69 16.5t64 46.5q39 41 62 101t23 128q0 66 -26 121.5t-73.5 95t-115 62t-150.5 22.5q-167 0 -281 -94q-79 -63 -119.5 -149.5t-40.5 -191.5q0 -81 28.5 -147.5t81.5 -113.5t128 -73t167 -26
q82 0 163.5 24.5t150.5 71.5l11 -18q-145 -107 -320 -107q-189 0 -306 90q-149 113 -149 307q0 81 25 151t73 129q71 87 170 132t222 45q83 0 153.5 -22.5t120.5 -60.5q128 -99 128 -249q0 -85 -31 -153t-88 -113q-35 -27 -73.5 -41t-77.5 -14q-93 0 -93 70q0 5 0.5 11
t1.5 12z" />
    <glyph glyph-name="A" unicode="A" horiz-adv-x="772" 
d="M386 696l-198 -427h396zM408 726l344 -726h-44l-109 237h-426l-109 -237h-44l344 726h44z" />
    <glyph glyph-name="B" unicode="B" horiz-adv-x="751" 
d="M436 32q104 0 161.5 39t57.5 125q0 51 -25.5 84.5t-65 53t-89 27.5t-97.5 8h-248v-337h306zM382 396q52 0 96.5 7.5t77.5 25.5t51.5 47t18.5 72q0 80 -51.5 114.5t-145.5 34.5h-299v-301h252zM92 726h352q117 0 170 -42t53 -130q0 -28 -7.5 -56t-27 -52t-52.5 -41
t-85 -22q99 -11 150 -61.5t51 -119.5q0 -107 -59.5 -154.5t-193.5 -47.5h-351v726z" />
    <glyph glyph-name="C" unicode="C" horiz-adv-x="823" 
d="M731 517q-11 44 -36.5 80.5t-63.5 62.5t-87.5 40t-107.5 14q-78 0 -141.5 -24.5t-108.5 -70.5t-69.5 -110.5t-24.5 -145.5q0 -80 24 -145t67.5 -110.5t104 -70.5t133.5 -25q60 0 113.5 17.5t95 49t70 74t39.5 93.5h44q-11 -58 -41 -107t-76.5 -84t-108 -55t-134.5 -20
q-86 0 -154.5 26.5t-116.5 76t-73.5 120.5t-25.5 160q0 90 25.5 161t74.5 120.5t120.5 75.5t163.5 26q73 0 131.5 -17t101 -47t68.5 -72t34 -93h-41v0z" />
    <glyph glyph-name="D" unicode="D" horiz-adv-x="825" 
d="M130 699v-668h222q84 0 148.5 9.5t115.5 43.5q60 39 87 110.5t27 173.5q0 202 -114 280q-53 34 -122 42.5t-159 8.5h-205zM352 726q51 0 94.5 -2t81 -9t69 -20t59.5 -35q62 -47 89 -118.5t27 -178.5t-27 -178.5t-89 -118.5q-28 -22 -59.5 -35t-69 -20t-81 -9t-94.5 -2
h-261v726h261z" />
    <glyph glyph-name="E" unicode="E" horiz-adv-x="694" 
d="M91 726h551v-29h-513v-312h474v-29h-474v-324h513v-32h-551v726z" />
    <glyph glyph-name="F" unicode="F" horiz-adv-x="655" 
d="M91 726h530v-29h-492v-309h439v-32h-439v-356h-38v726z" />
    <glyph glyph-name="G" unicode="G" horiz-adv-x="847" 
d="M746 0l-8 159q-23 -55 -63 -89.5t-85 -54.5t-88.5 -27.5t-74.5 -7.5q-87 0 -156 26.5t-117.5 76t-74.5 120.5t-26 160q0 90 25.5 161t74.5 120.5t120.5 75.5t163.5 26q71 0 129 -17t100 -47t66.5 -70.5t29.5 -87.5h-47q-17 86 -90.5 138t-191.5 52q-77 0 -140 -24.5
t-107.5 -70.5t-68.5 -110.5t-24 -145.5q0 -80 24.5 -145.5t68.5 -111.5t105.5 -70.5t136.5 -24.5t133 25t97.5 63t59.5 84t20 89v55h-243v29h281v-356h-30z" />
    <glyph glyph-name="H" unicode="H" horiz-adv-x="797" 
d="M89 726h40v-322h538v322h40v-726h-40v375h-538v-375h-40v726z" />
    <glyph glyph-name="I" unicode="I" horiz-adv-x="232" 
d="M97 726h38v-726h-38v726z" />
    <glyph glyph-name="J" unicode="J" horiz-adv-x="591" 
d="M279 -20q-233 0 -233 227v8h38v-14q0 -92 48.5 -139.5t137.5 -47.5q104 0 146.5 55t42.5 167v490h38v-474q0 -66 -5.5 -111t-32.5 -81q-29 -38 -74.5 -59t-105.5 -21z" />
    <glyph glyph-name="K" unicode="K" horiz-adv-x="722" 
d="M92 726h38v-443l501 443h46l-335 -298l346 -428h-47l-328 404l-183 -161v-243h-38v726z" />
    <glyph glyph-name="L" unicode="L" horiz-adv-x="642" 
d="M91 726h38v-694h483v-32h-521v726z" />
    <glyph glyph-name="M" unicode="M" horiz-adv-x="1030" 
d="M131 656v-656h-38v726h44l378 -690l378 690h44v-726h-38v655l-361 -655h-44z" />
    <glyph glyph-name="N" unicode="N" horiz-adv-x="854" 
d="M764 726v-726h-45l-590 676v-676h-39v726h45l590 -679v679h39z" />
    <glyph glyph-name="O" unicode="O" horiz-adv-x="877" 
d="M438 8q79 0 143 25t109 71.5t69 112t24 146.5t-24 146t-69 110.5t-109 70t-143 24.5t-143 -24.5t-109 -70t-69 -110.5t-24 -146t24 -146.5t69 -112t109 -71.5t143 -25zM822 363q0 -90 -25.5 -161t-74.5 -120.5t-120.5 -75.5t-163.5 -26t-163.5 26t-120.5 75.5
t-74.5 120.5t-25.5 161t25.5 161t74.5 120.5t120.5 75.5t163.5 26t163.5 -26t120.5 -75.5t74.5 -120.5t25.5 -161z" />
    <glyph glyph-name="P" unicode="P" horiz-adv-x="694" 
d="M92 726h293q138 0 200.5 -48.5t62.5 -156.5t-63 -156.5t-200 -48.5h-255v-316h-38v726zM371 347q57 0 101 8t74 28t45 54t15 85t-15 84.5t-45 53.5t-74 28.5t-101 8.5h-241v-350h241z" />
    <glyph glyph-name="Q" unicode="Q" horiz-adv-x="877" 
d="M532 140l24 28l109 -94q63 61 90.5 132.5t27.5 157.5q0 81 -24 146t-69 110t-109 69.5t-143 24.5t-142.5 -24.5t-108 -70t-68.5 -110.5t-24 -146t24 -146t68.5 -110.5t108 -70t142.5 -24.5q57 0 102 11t92 40zM662 33q-56 -29 -109 -41t-115 -12q-92 0 -163.5 26
t-120.5 75.5t-74.5 121t-25.5 161.5t25.5 161t74.5 120t120.5 75t163.5 26t163.5 -26t121 -75t75.5 -120t26 -161q0 -47 -7.5 -88.5t-23.5 -79.5t-42.5 -73.5t-63.5 -69.5l116 -93l-21 -24z" />
    <glyph glyph-name="R" unicode="R" horiz-adv-x="768" 
d="M90 726h349q134 0 196.5 -46.5t62.5 -140.5q0 -35 -9 -68t-28.5 -59.5t-49 -44.5t-70.5 -22q27 -2 52 -14t44.5 -31.5t31.5 -46.5t12 -60q0 -74 2.5 -120t17.5 -73h-44q-13 33 -15 79t-2 114q0 34 -15.5 60t-43 43t-65.5 25.5t-82 8.5h-305v-330h-39v726zM129 697v-337
h302q112 0 169 38.5t57 130.5q0 48 -15.5 80t-45.5 51.5t-74 28t-101 8.5h-292z" />
    <glyph glyph-name="S" unicode="S" horiz-adv-x="727" 
d="M102 211q0 -41 20 -77t56 -63t85 -43t107 -16t105 13.5t80 37.5t50.5 57t17.5 72t-14 64.5t-41 42.5t-66 27.5t-89 19.5l-163 29q-88 15 -126.5 55.5t-38.5 115.5q0 45 18 81.5t53 63t86.5 41t118.5 14.5t118.5 -14.5t86.5 -40t53.5 -61t19.5 -77.5h-39q-6 73 -68 117
t-171 44q-54 0 -97 -12t-74 -33.5t-47.5 -52t-16.5 -67.5q0 -36 12 -60t36.5 -40t61.5 -26.5t86 -20.5l157 -31q49 -10 84.5 -24t57.5 -35t32.5 -49.5t10.5 -67.5q0 -102 -73.5 -158.5t-219.5 -56.5q-148 0 -227 61.5t-82 169.5h40z" />
    <glyph glyph-name="T" unicode="T" horiz-adv-x="638" 
d="M300 697h-298v29h634v-29h-298v-697h-38v697z" />
    <glyph glyph-name="U" unicode="U" horiz-adv-x="813" 
d="M129 726v-450q0 -132 68 -198t209 -66t209.5 66.5t68.5 197.5v450l39 1v-471q0 -136 -79 -206t-238 -70q-161 0 -238.5 70t-77.5 210v466h39z" />
    <glyph glyph-name="V" unicode="V" horiz-adv-x="758" 
d="M17 726h44l316 -694l319 694h45l-342 -726h-44z" />
    <glyph glyph-name="W" unicode="W" horiz-adv-x="1150" 
d="M573 676l-228 -676h-44l-272 726h44l250 -694l228 694h44l228 -694l253 694h44l-275 -726h-44z" />
    <glyph glyph-name="X" unicode="X" horiz-adv-x="702" 
d="M332 370l-278 356h47l252 -328l257 328h47l-278 -357l292 -369h-50l-266 340l-264 -340h-53z" />
    <glyph glyph-name="Y" unicode="Y" horiz-adv-x="727" 
d="M344 319l-310 407h49l280 -384l284 384h45l-310 -407v-319h-38v319z" />
    <glyph glyph-name="Z" unicode="Z" horiz-adv-x="704" 
d="M34 46l593 651h-564v29h606v-42l-597 -652h597v-32h-635v46z" />
    <glyph glyph-name="bracketleft" unicode="[" horiz-adv-x="288" 
d="M79 720h180v-24h-148v-871h149v-24h-181v919z" />
    <glyph glyph-name="backslash" unicode="\" horiz-adv-x="258" 
d="M-3 746h21l287 -844h-20z" />
    <glyph glyph-name="bracketright" unicode="]" horiz-adv-x="288" 
d="M28 -199v24h149v871h-148v24h180v-919h-181z" />
    <glyph glyph-name="asciicircum" unicode="^" horiz-adv-x="1026" 
d="M776 468h-29l-235 241l-236 -241h-29l234 270h62z" />
    <glyph glyph-name="underscore" unicode="_" horiz-adv-x="494" 
d="M494 -256h-494v14h494v-14z" />
    <glyph glyph-name="grave" unicode="`" horiz-adv-x="493" 
d="M162 739h44l67 -114h-22z" />
    <glyph glyph-name="a" unicode="a" 
d="M517 312q-19 -17 -41.5 -25.5t-49.5 -12.5t-58 -6.5t-67 -8.5q-47 -7 -84 -14.5t-63.5 -20.5t-40.5 -34.5t-14 -56.5q0 -26 12 -48t33.5 -38.5t51.5 -25.5t67 -9q54 0 100.5 14.5t80.5 40.5t53.5 62t19.5 80v103zM616 6q-4 -1 -16.5 -3.5t-26.5 -2.5q-16 0 -26.5 3
t-17 14.5t-9.5 34t-3 60.5q-19 -36 -48 -60t-63.5 -38t-72.5 -20t-76 -6q-100 0 -147 37.5t-47 109.5q0 34 12 59t39 45t74.5 29.5t116.5 18.5q51 7 90.5 11t66.5 13.5t41 28.5t14 56q0 57 -49 85.5t-140 28.5q-101 0 -153 -34.5t-52 -94.5h-35q-1 75 60.5 116t184.5 41
q75 0 120.5 -14.5t72.5 -46.5q20 -25 24 -53.5t4 -71.5v-250q0 -14 0.5 -27t4.5 -23t13.5 -16t27.5 -6q4 0 8.5 1.5l7.5 2.5v-28z" />
    <glyph glyph-name="b" unicode="b" horiz-adv-x="682" 
d="M81 726h35v-336q22 46 50 74.5t59.5 45t65.5 22.5t68 6q64 0 115.5 -19.5t88 -55.5t56 -86.5t19.5 -112.5q0 -63 -19.5 -114t-56 -87t-88 -55.5t-115.5 -19.5q-35 0 -69.5 7t-66.5 24.5t-59.5 46.5t-47.5 74v-140h-35v726zM116 264q0 -55 17.5 -100.5t49.5 -78
t76.5 -50.5t98.5 -18t98.5 18t77 50.5t50 78t17.5 100.5q0 54 -17.5 99t-49.5 78t-76.5 51t-98.5 18t-98.5 -18t-77 -50.5t-50 -77.5t-17.5 -100z" />
    <glyph glyph-name="c" unicode="c" horiz-adv-x="612" 
d="M581 168q-5 -38 -25.5 -70.5t-53.5 -57t-78 -38.5t-97 -14q-65 0 -117 19.5t-89 55.5t-56.5 87.5t-19.5 115.5t19.5 114.5t56.5 85.5t89 53.5t117 18.5q51 0 94.5 -12t76 -32.5t53 -49t25.5 -61.5h-40q-20 61 -76 94t-135 33q-53 0 -97.5 -17t-77 -48.5t-51 -77
t-18.5 -101.5t18 -102t50.5 -79t78 -51t99.5 -18q41 0 77.5 12t65 32.5t48 48t25.5 59.5h38z" />
    <glyph glyph-name="d" unicode="d" horiz-adv-x="682" 
d="M601 0h-34v140q-16 -47 -43 -76.5t-60 -46.5t-70 -23t-71 -6q-64 0 -115.5 19.5t-87.5 55.5t-55.5 87t-19.5 114q0 62 19.5 112.5t55.5 86.5t87.5 55.5t115.5 19.5q34 0 69 -7t67.5 -24.5t60 -45.5t47.5 -70v336h34v-727zM567 264q0 55 -17.5 100.5t-50 78t-77 50.5
t-98.5 18t-98.5 -18.5t-77 -51t-50 -78t-17.5 -99.5q0 -55 17.5 -100.5t50 -78t77 -50.5t98.5 -18t98.5 18t77 50.5t50 78t17.5 100.5z" />
    <glyph glyph-name="e" unicode="e" horiz-adv-x="649" 
d="M580 141q-8 -33 -29.5 -61t-54 -48.5t-75.5 -32t-94 -11.5q-65 0 -117 19t-88.5 55t-56 86.5t-19.5 113.5t19.5 114t56.5 87t88.5 55.5t116.5 19.5q64 0 115.5 -20t88 -56t56 -87t19.5 -114h-524q4 -63 23 -109t51 -76t75 -44.5t96 -14.5q38 0 72 9t61 25.5t46.5 39
t28.5 50.5h45zM566 289q0 55 -19.5 96t-52.5 69t-76 42t-91 14q-49 0 -91.5 -14.5t-75 -42.5t-53.5 -69.5t-25 -94.5h484z" />
    <glyph glyph-name="f" unicode="f" horiz-adv-x="280" 
d="M113 496h-98v28h98v65q0 40 4 66.5t15 42t30 22t49 6.5q17 0 34.5 -2.5t29.5 -5.5v-28q-14 4 -30.5 5.5t-33.5 1.5q-21 0 -34 -7t-19.5 -19.5t-8.5 -31t-2 -41.5v-74h128v-28h-128v-496h-34v496z" />
    <glyph glyph-name="g" unicode="g" horiz-adv-x="682" 
d="M569 262q0 55 -17.5 101t-50 78.5t-77 50.5t-98.5 18t-98.5 -18t-77 -51t-50 -78.5t-17.5 -100.5q0 -54 17.5 -99t50 -77.5t77 -50.5t98.5 -18t98.5 18t77 50t50 77.5t17.5 99.5zM603 23q0 -29 -1.5 -52t-7.5 -42.5t-17.5 -36.5t-30.5 -33q-39 -31 -92 -45.5t-126 -14.5
q-57 0 -100 10t-73 27t-46 39.5t-18 48.5h39q7 -44 59 -70.5t138 -26.5q127 0 184.5 45t57.5 144v120q-15 -42 -42 -70t-61 -45.5t-70.5 -25t-70.5 -7.5q-64 0 -115.5 19.5t-87.5 55.5t-55.5 86.5t-19.5 112.5q0 63 19.5 114t55.5 87t87.5 55.5t115.5 19.5q33 0 67.5 -5.5
t66.5 -21.5t60.5 -45t49.5 -76v134h34v-501z" />
    <glyph glyph-name="h" unicode="h" horiz-adv-x="641" 
d="M77 726h34v-322q29 63 87 98.5t154 35.5q42 0 80.5 -11.5t67.5 -35t46.5 -60t17.5 -87.5v-344h-34v296q0 105 -42.5 159.5t-138.5 54.5q-42 0 -84.5 -11t-76.5 -38t-55.5 -72.5t-21.5 -113.5v-275h-34v726z" />
    <glyph glyph-name="i" unicode="i" horiz-adv-x="203" 
d="M84 524h34v-524h-34v524zM118 659h-34v67h34v-67z" />
    <glyph glyph-name="j" unicode="j" horiz-adv-x="200" 
d="M125 -86q0 -34 -4 -57t-15 -37.5t-31.5 -20.5t-53.5 -6q-19 0 -34 2.5t-22 4.5l1 29q11 -4 23 -5.5t23 -2.5q29 0 44.5 8t23 22.5t9 34.5t1.5 43v589h35v-604zM125 652h-34v67h34v-67z" />
    <glyph glyph-name="k" unicode="k" horiz-adv-x="590" 
d="M82 726h34v-487l352 285h45l-228 -185l284 -339h-47l-267 318l-139 -115v-203h-34v726z" />
    <glyph glyph-name="l" unicode="l" horiz-adv-x="203" 
d="M84 726h34v-726h-34v726z" />
    <glyph glyph-name="m" unicode="m" horiz-adv-x="1084" 
d="M78 524h34v-128q29 72 93.5 107t161.5 35q38 0 66.5 -7t50 -23.5t37.5 -44t29 -67.5q29 72 93 107t161 35q107 0 155.5 -44.5t48.5 -145.5v-348h-34v300q0 52 -9 91.5t-29.5 66t-54.5 39.5t-84 13t-93 -15t-75 -42t-50 -65t-18 -83v-305h-34v300q0 106 -45.5 158
t-145.5 52q-45 0 -86 -16t-71.5 -44t-48.5 -65t-18 -80v-305h-34v524z" />
    <glyph glyph-name="n" unicode="n" horiz-adv-x="641" 
d="M77 524h34v-130q7 27 27 53t50.5 46.5t72 32.5t91.5 12q39 0 77 -9t68 -31.5t48.5 -60t18.5 -93.5v-344h-34v331q0 40 -9.5 73t-30.5 56.5t-54.5 36.5t-81.5 13q-39 0 -82 -10.5t-78.5 -36.5t-59 -69t-23.5 -107v-287h-34v524z" />
    <glyph glyph-name="o" unicode="o" horiz-adv-x="654" 
d="M608 260q1 -110 -54 -181q-37 -48 -94.5 -72.5t-132.5 -24.5q-72 0 -128 23t-94 67q-60 74 -60 188q0 64 20 114.5t56.5 85.5t88.5 53.5t117 18.5q64 0 116 -18.5t89 -53.5t56.5 -85.5t19.5 -114.5zM572 260q0 56 -18 101.5t-50 77t-77.5 48.5t-99.5 17q-55 0 -100 -17
t-77.5 -49t-50.5 -77t-18 -101t18 -102t50.5 -79t77.5 -51t100 -18q54 0 99.5 18t77.5 51t50 79t18 102z" />
    <glyph glyph-name="p" unicode="p" horiz-adv-x="682" 
d="M116 -211h-34v725h34v-139q19 45 46.5 74.5t59.5 47t67.5 24.5t70.5 7q64 0 115.5 -20t87.5 -56t55.5 -87t19.5 -113t-19.5 -112.5t-55.5 -86.5t-87.5 -55.5t-115.5 -19.5q-34 0 -70 7.5t-69 24.5t-60.5 45t-44.5 70v-336zM602 252q0 55 -17.5 100.5t-50 78.5t-77 51
t-98.5 18t-98.5 -18t-77 -50.5t-50 -78.5t-17.5 -101q0 -54 17.5 -99.5t50 -78t77 -50.5t98.5 -18t98.5 18t77 51t50 78t17.5 99z" />
    <glyph glyph-name="q" unicode="q" horiz-adv-x="682" 
d="M567 135q-17 -42 -44.5 -70t-60.5 -45t-69 -24.5t-70 -7.5q-64 0 -115.5 19.5t-87.5 55.5t-55.5 86.5t-19.5 112.5t19.5 113t55.5 87t87.5 56t115.5 20q35 0 70 -7t67.5 -24.5t60 -47t46.5 -74.5v139h34v-725h-34v336zM81 262q0 -54 17.5 -99t50 -78t77 -51t98.5 -18
t98.5 18t77 50.5t50 78t17.5 99.5q0 55 -17.5 101t-50 78.5t-77 50.5t-98.5 18t-98.5 -18t-77 -51t-50 -78.5t-17.5 -100.5z" />
    <glyph glyph-name="r" unicode="r" horiz-adv-x="358" 
d="M79 0v524h34v-139q12 41 30.5 70t41.5 47.5t49.5 27t53.5 8.5q20 0 42 -3t31 -8v-33q-10 6 -27.5 11t-50.5 5q-38 0 -69 -22t-53.5 -55.5t-35 -74t-12.5 -76.5v-282h-34z" />
    <glyph glyph-name="s" unicode="s" horiz-adv-x="563" 
d="M68 135q7 -58 63 -92.5t150 -34.5q100 0 157 32.5t57 92.5q0 47 -32.5 72t-89.5 34l-163 24q-45 6 -76.5 16t-51 26t-28.5 38.5t-9 53.5q0 66 57 104.5t175 38.5q57 0 101 -11t73.5 -29.5t44.5 -44t16 -54.5h-39q-8 52 -62 83t-145 31q-85 0 -134 -31.5t-49 -82.5
q0 -53 40 -76t106 -32l144 -22q44 -6 74.5 -16t49.5 -25.5t27.5 -37.5t8.5 -52q0 -80 -62.5 -120t-196.5 -40q-118 0 -178 43t-65 112h37z" />
    <glyph glyph-name="t" unicode="t" horiz-adv-x="280" 
d="M145 129q0 -24 2 -44.5t9.5 -35.5t22.5 -23.5t41 -8.5q17 0 36 7q9 3 18 7v-31q-14 -5 -33.5 -8.5t-39.5 -3.5q-27 0 -44.5 7t-27.5 23t-14 41.5t-4 61.5v375h-98v29h98v172h34v-172h128v-29h-128v-367v0z" />
    <glyph glyph-name="u" unicode="u" horiz-adv-x="641" 
d="M564 0h-33v146q-8 -29 -24.5 -51t-33.5 -39q-42 -40 -94.5 -54t-102.5 -14q-107 0 -153 45.5t-46 146.5v344h34v-295q0 -55 7 -95t26.5 -66t54 -38.5t89.5 -12.5q48 0 92 17t77.5 48.5t53 76.5t19.5 101l-1 264h35v-524z" />
    <glyph glyph-name="v" unicode="v" horiz-adv-x="535" 
d="M44 524l222 -499l221 499h41l-242 -524h-41l-242 524h41z" />
    <glyph glyph-name="w" unicode="w" horiz-adv-x="877" 
d="M646 0h-42l-173 493l-177 -493h-42l-190 524h41l170 -499l177 499h41l175 -499l170 499h41z" />
    <glyph glyph-name="x" unicode="x" horiz-adv-x="562" 
d="M284 258l-211 -258h-49l241 281l-211 243h50l178 -220l180 220h50l-210 -245l240 -279h-49z" />
    <glyph glyph-name="y" unicode="y" horiz-adv-x="535" 
d="M250 -78q-19 -32 -32.5 -55t-30.5 -38t-41 -22.5t-63 -7.5q-13 0 -25.5 2t-19.5 4v28q7 -2 23 -4t31 -2q28 0 49 10t38.5 29.5t33.5 49t33 68.5l-248 540h42l223 -515l225 515h39l-277 -602v0z" />
    <glyph glyph-name="z" unicode="z" horiz-adv-x="558" 
d="M26 39l461 457h-434v28h463v-38l-461 -457h476v-29h-505v39z" />
    <glyph glyph-name="braceleft" unicode="{" horiz-adv-x="494" 
d="M407 690h-19q-38 0 -61 -7t-35.5 -23t-17 -42.5t-4.5 -64.5v-120q0 -38 -3.5 -67t-14 -51t-29 -37t-49.5 -24q31 -9 49.5 -24t29 -37t14 -51t3.5 -67v-120q0 -38 4.5 -64.5t17 -42.5t35.5 -23t61 -7h19v-34h-17q-50 0 -81.5 10t-49 32.5t-23.5 59t-6 88.5v118
q0 39 -6.5 67t-21.5 45t-40 25t-62 8q-5 0 -11 -0.5t-12 -0.5v36q7 -1 13.5 -1h12.5q71 0 99 33.5t28 111.5v118q0 52 6 88.5t23.5 59.5t49 33t81.5 10h17v-35z" />
    <glyph glyph-name="bar" unicode="|" horiz-adv-x="494" 
d="M263 -245h-32v1020h32v-1020z" />
    <glyph glyph-name="braceright" unicode="}" horiz-adv-x="494" 
d="M108 727q50 0 81.5 -10t49 -33t23.5 -59.5t6 -88.5v-118q0 -78 28 -111.5t99 -33.5h12.5t13.5 1v-36q-6 0 -12 0.5t-11 0.5q-37 0 -62 -8t-40 -25t-21.5 -45t-6.5 -67v-118q0 -52 -6 -88.5t-23.5 -59t-49 -32.5t-81.5 -10h-17v34h19q37 0 60.5 7t36 23t17 42.5t4.5 64.5
v120q0 38 3.5 67t14 51t29 37t49.5 24q-31 9 -49.5 24t-29 37t-14 51t-3.5 67v120q0 38 -4.5 64.5t-17 42.5t-36 23t-60.5 7h-19v35h17z" />
    <glyph glyph-name="asciitilde" unicode="~" horiz-adv-x="848" 
d="M753 307q-105 -73 -193 -73q-41 0 -76 10.5t-67 22.5q-37 14 -72 25.5t-71 11.5q-46 0 -92 -21t-101 -59v37q51 36 98.5 55t94.5 19q22 0 45.5 -5.5t50.5 -14.5q51 -17 96.5 -34t93.5 -17q45 0 91.5 20.5t101.5 58.5v-36z" />
    <glyph glyph-name="afii10051" unicode="&#x402;" horiz-adv-x="947" 
d="M338 0h-39v697h-297v29h661v-29h-325v-307q60 17 130 26t142 9q69 0 125.5 -17t96.5 -47t61.5 -70.5t21.5 -86.5q0 -110 -72.5 -167t-217.5 -57q-38 0 -67.5 6t-53.5 14l10 33q20 -6 51 -14.5t58 -8.5q42 0 86.5 8.5t81.5 30.5t61 58.5t24 93.5t-27.5 94.5t-69 59.5
t-90 31t-90.5 9q-24 0 -55.5 -2t-66 -6.5t-70.5 -11.5t-69 -18v-357z" />
    <glyph glyph-name="afii10052" unicode="&#x403;" horiz-adv-x="582" 
d="M92 0v726h481v-29h-443v-697h-38zM392 992h59l-113 -164h-29z" />
    <glyph glyph-name="quotesinglbase" unicode="&#x201a;" horiz-adv-x="269" 
d="M111 53h47v-104q0 -53 -10.5 -76t-36.5 -31v27q17 10 20 26t3 39v66h-23v53z" />
    <glyph glyph-name="afii10100" unicode="&#x453;" horiz-adv-x="536" 
d="M76 521h446v-24h-411v-497h-35v521zM367 786h43l-91 -115h-19z" />
    <glyph glyph-name="quotedblbase" unicode="&#x201e;" horiz-adv-x="443" 
d="M284 52h47v-104q0 -53 -10.5 -76t-36.5 -31v27q17 10 20 26t3 39v66h-23v53zM111 52h47v-104q0 -53 -10.5 -76t-36.5 -31v27q17 10 20 26t3 39v66h-23v53z" />
    <glyph glyph-name="ellipsis" unicode="&#x2026;" horiz-adv-x="787" 
d="M9 50h48v-50h-48v50zM364 50h47v-50h-47v50zM719 50h48v-50h-48v50z" />
    <glyph glyph-name="dagger" unicode="&#x2020;" horiz-adv-x="654" 
d="M309 443h-243v30h243v253h36v-253h243v-30h-243v-626h-36v626z" />
    <glyph glyph-name="daggerdbl" unicode="&#x2021;" 
d="M197 216q0 -19 -2.5 -41t-12 -46t-29 -49t-52.5 -51v-1q16 9 36.5 13t40 5.5t35 1t21.5 -0.5q23 0 48 -6t52 -12.5t56 -12.5t61 -6q42 0 83 14t72 35l12 -29q-29 -23 -70 -36.5t-91 -13.5q-36 0 -70 6.5t-66 15t-62.5 15t-59.5 6.5q-35 0 -69 -9t-59 -23l-19 33
q49 32 79 78t30 106q0 27 -7.5 57t-24.5 68h-95v26h88q-24 61 -33.5 97.5t-9.5 63.5q0 45 18 83t52 66t83 43.5t111 15.5q127 0 197 -56.5t70 -156.5h-34q0 40 -16.5 74.5t-46.5 59t-73 38.5t-96 14q-50 0 -91.5 -14t-71.5 -38.5t-46.5 -58.5t-16.5 -74q0 -36 11.5 -72.5
t31.5 -84.5h239v-26h-229q16 -47 21 -72.5t5 -44.5z" />
    <glyph glyph-name="perthousand" unicode="&#x2030;" horiz-adv-x="1268" 
d="M167 571q0 -26 10 -48.5t26.5 -39t39 -26t47.5 -9.5t48 9.5t39.5 26t26.5 39t10 48.5t-9.5 48.5t-26.5 39t-39.5 26t-48.5 9.5q-25 0 -47.5 -9.5t-39 -26t-26.5 -39t-10 -48.5zM136 572q0 32 12 60.5t32.5 49.5t48.5 33t60 12t60.5 -12t49.5 -33t33 -49.5t12 -60.5
t-12 -60t-33 -49t-49.5 -33t-60.5 -12t-59.5 12t-48.5 33t-33 49t-12 60zM645 727h36l-405 -743h-33zM512 137q0 -26 9.5 -48.5t26.5 -39t39 -26t48 -9.5q25 0 47.5 9.5t39 26t26.5 39t10 48.5t-10 48.5t-26.5 39t-39 26t-47.5 9.5q-26 0 -48.5 -9.5t-39 -26.5t-26 -39.5
t-9.5 -47.5zM480 138q0 32 12 60t33 49t49.5 33t60.5 12t60 -12t49 -33t33 -49t12 -60t-12 -60t-33 -49t-49 -33t-60 -12t-60 12t-49 33t-33.5 49t-12.5 60zM903 138q0 -26 10 -48.5t26.5 -39.5t39 -26.5t48.5 -9.5q25 0 47.5 9.5t39.5 26.5t27 39.5t10 48.5t-10 48.5
t-27 39t-39.5 26t-47.5 9.5q-26 0 -48.5 -9.5t-39 -26t-26.5 -39t-10 -48.5zM872 138q0 32 12 60t33 49t49.5 33t60.5 12t60 -12t49 -33t33 -49t12 -60t-12 -60t-33 -49t-49 -33t-60 -12t-60 12t-49 33t-33.5 49t-12.5 60z" />
    <glyph glyph-name="afii10058" unicode="&#x409;" horiz-adv-x="1274" 
d="M176 694v-344q0 -102 -8 -172.5t-24.5 -114.5t-41.5 -63.5t-58 -19.5q-29 0 -44 5l6 36q14 -4 19.5 -4.5t15.5 -0.5q25 0 43.5 22t30.5 68.5t17.5 119.5t5.5 175v325h573v-315h254q136 0 199.5 -48.5t63.5 -156.5t-63.5 -157t-199.5 -49h-292v694h-497zM711 29h240
q57 0 101 8.5t74 28.5t45 54t15 85t-15 84.5t-45 53.5t-74 28t-101 8h-240v-350z" />
    <glyph glyph-name="guilsinglleft" unicode="&#x2039;" horiz-adv-x="292" 
d="M256 413v-32l-145 -121l145 -121v-32l-181 137v32z" />
    <glyph glyph-name="afii10059" unicode="&#x40a;" horiz-adv-x="1268" 
d="M129 726v-321h538v321h38v-321h254q139 0 202 -46t63 -154q0 -107 -63.5 -156t-201.5 -49h-292v375h-538v-375h-40v726h40zM705 29h241q58 0 102 8.5t73.5 28.5t44.5 53.5t15 84.5q0 52 -15 85t-45 52t-74 26.5t-101 7.5h-241v-346z" />
    <glyph glyph-name="afii10061" unicode="&#x40c;" horiz-adv-x="722" 
d="M91 727h39v-443l501 443h46l-335 -299l346 -428h-47l-328 405l-183 -161v-244h-39v727zM431 1000h60l-114 -164h-28z" />
    <glyph glyph-name="afii10060" unicode="&#x40b;" horiz-adv-x="947" 
d="M299 697h-297v29h661v-29h-325v-307q60 17 130 26t142 9q49 0 103 -12.5t99 -41.5t74 -77t29 -119v-175h-39v177q0 64 -27 106t-68 67t-89.5 35t-92.5 10q-24 0 -55.5 -2t-66 -6.5t-70.5 -11.5t-69 -18v-357h-39v697z" />
    <glyph glyph-name="afii10145" unicode="&#x40f;" horiz-adv-x="797" 
d="M89 726h40v-695h538v695h40v-726h-290v-189h-39v189h-289v726z" />
    <glyph glyph-name="afii10099" unicode="&#x452;" horiz-adv-x="641" 
d="M78 633h-56v24h56v82h35v-82h235v-24h-235v-235q17 42 45 69t61.5 42.5t70 21.5t72.5 6q92 0 147 -53.5t55 -154.5v-201q0 -57 -17 -100t-43 -71.5t-56 -43t-57 -14.5h-82v24h38q39 0 72.5 16t58 43t38 62.5t13.5 73.5v186q0 100 -43 153t-133 53q-50 0 -93.5 -16
t-76 -43.5t-51.5 -66t-19 -83.5v-301h-35v633z" />
    <glyph glyph-name="quoteleft" unicode="&#x2018;" horiz-adv-x="269" 
d="M158 538h-47v104q0 53 10.5 76t36.5 31v-27q-17 -10 -20 -26t-3 -39v-66h23v-53z" />
    <glyph glyph-name="quoteright" unicode="&#x2019;" horiz-adv-x="269" 
d="M113 753h47v-104q0 -53 -10.5 -76t-36.5 -31v27q17 10 20 26t3 39v66h-23v53z" />
    <glyph glyph-name="quotedblleft" unicode="&#x201c;" horiz-adv-x="443" 
d="M158 538h-47v104q0 53 10.5 76t36.5 31v-27q-17 -10 -20 -26t-3 -39v-66h23v-53zM331 538h-47v104q0 53 10.5 76t36.5 31v-27q-17 -10 -20 -26t-3 -39v-66h23v-53z" />
    <glyph glyph-name="quotedblright" unicode="&#x201d;" horiz-adv-x="443" 
d="M283 753h47v-104q0 -53 -10.5 -76t-36.5 -31v27q17 10 20 26t3 39v66h-23v53zM110 753h47v-104q0 -53 -10.5 -76t-36.5 -31v27q17 10 20 26t3 39v66h-23v53z" />
    <glyph glyph-name="bullet" unicode="&#x2022;" horiz-adv-x="470" 
d="M127 300q0 46 30 75.5t78 29.5q46 0 76.5 -29.5t30.5 -75.5q0 -22 -8 -41.5t-22.5 -34t-34.5 -23t-43 -8.5q-47 0 -77 30.5t-30 76.5z" />
    <glyph glyph-name="endash" unicode="&#x2013;" horiz-adv-x="487" 
d="M0 271h487v-24h-487v24z" />
    <glyph glyph-name="emdash" unicode="&#x2014;" horiz-adv-x="930" 
d="M930 247h-930v24h930v-24z" />
    <glyph glyph-name="trademark" unicode="&#x2122;" horiz-adv-x="848" 
d="M338 753v-20h-91v-241h-32v241h-94v20h217zM455 753l96 -226l90 226h46v-261h-26v243l-98 -243h-24l-104 243v-243h-26v261h46z" />
    <glyph glyph-name="afii10106" unicode="&#x459;" horiz-adv-x="1049" 
d="M828 284q51 0 85.5 -9.5t55.5 -28t30 -45t9 -59.5q0 -74 -43 -108t-144 -34h-275v496h-379v-121q0 -29 -1 -61.5t-2.5 -64.5t-3.5 -60t-5 -48q-10 -78 -36 -112t-78 -34h-12t-11 1l-12 2v10h25q17 0 35.5 12t33.5 34q9 14 14.5 40.5t9.5 73.5t6 118t2 173v62h450v-237
h246zM582 24h237q82 0 117 28.5t35 88.5q0 56 -35 87.5t-116 31.5h-238v-236z" />
    <glyph glyph-name="guilsinglright" unicode="&#x203a;" horiz-adv-x="292" 
d="M257 276v-32l-181 -137v32l145 121l-145 121v32z" />
    <glyph glyph-name="afii10107" unicode="&#x45a;" horiz-adv-x="1033" 
d="M810 285q51 0 86 -10t56 -28.5t30.5 -45t9.5 -59.5q0 -74 -43.5 -108t-144.5 -34h-274v261h-416v-261h-36v520h36v-235h416v235h34v-235h246zM564 24h238q83 0 117.5 28.5t34.5 88.5q0 56 -34.5 88t-116.5 32h-239v-237z" />
    <glyph glyph-name="afii10109" unicode="&#x45c;" horiz-adv-x="590" 
d="M80 521h36v-282l351 282h45l-227 -182l284 -339h-47l-267 318l-139 -114v-204h-36v521zM354 739h45l-92 -115h-19z" />
    <glyph glyph-name="afii10108" unicode="&#x45b;" horiz-adv-x="641" 
d="M78 632h-56v24h56v70h35v-70h235v-24h-235v-228q29 63 87 98.5t154 35.5q42 0 80.5 -11.5t67.5 -35t46.5 -60t17.5 -87.5v-344h-34v296q0 104 -40.5 159t-135.5 55q-45 0 -88.5 -11t-78 -38t-55.5 -72.5t-21 -113.5v-275h-35v632z" />
    <glyph glyph-name="afii10193" unicode="&#x45f;" horiz-adv-x="640" 
d="M530 24v498h35v-522h-226v-170h-35v170h-226v522h35v-498h417z" />
    <glyph glyph-name="afii10062" unicode="&#x40e;" horiz-adv-x="727" 
d="M53 726l314 -593l271 593h42l-301 -639q-17 -33 -35 -52t-36.5 -29t-36.5 -13.5t-35 -4.5q-5 0 -13.5 0.5t-17.5 2t-16.5 3t-10.5 2.5l8 33q8 -5 16 -7t20 -2q23 1 39.5 3.5t29 8.5t22.5 16.5t19 27.5l15 26l-339 624h45zM222 931q0 -29 10.5 -48.5t28.5 -31.5t41 -17
t47 -5q25 0 48.5 4.5t42 16.5t30 31.5t11.5 49.5h24q0 -66 -40.5 -100t-118.5 -34q-72 0 -110 35t-38 99h24z" />
    <glyph glyph-name="afii10110" unicode="&#x45e;" horiz-adv-x="535" 
d="M251 -80q-14 -33 -27.5 -56.5t-31.5 -38t-43.5 -21.5t-64.5 -7q-13 0 -25.5 2t-19.5 4v28q7 -2 23 -3.5t31 -1.5q28 0 49 9.5t38.5 29t33.5 49t33 68.5l-248 540h42l223 -515l225 515h39zM154 737q0 -23 9.5 -38.5t25 -25.5t35.5 -14t41 -4t42 4t37.5 13t26.5 25t10 40
h21q0 -53 -35 -80.5t-104 -27.5q-63 0 -96.5 28.5t-33.5 79.5h21z" />
    <glyph glyph-name="afii10057" unicode="&#x408;" horiz-adv-x="591" 
d="M279 -20q-118 0 -175 56t-57 171v8h-1q0 5 0.5 3.5t0.5 -3.5h37v-14q0 -92 48.5 -142t137.5 -50q104 0 146.5 57.5t42.5 169.5v491h38v-475q0 -66 -5.5 -111t-32.5 -81q-29 -38 -74.5 -59t-105.5 -21z" />
    <glyph glyph-name="currency" unicode="&#xa4;" horiz-adv-x="607" 
d="M172 597q57 47 130 47q35 0 68.5 -11.5t62.5 -35.5l102 103l30 -30l-103 -102q23 -29 34.5 -62t11.5 -68t-11.5 -68t-34.5 -62l103 -102l-30 -30l-102 103q-29 -23 -62.5 -34.5t-68.5 -11.5q-74 0 -130 46l-103 -103l-29 30l103 102q-23 29 -34.5 62t-11.5 68t11.5 68
t34.5 62l-103 102l29 30zM303 603q-35 0 -65 -13t-52 -35.5t-35 -52t-13 -63.5t13 -64t35 -52.5t52 -35.5t65 -13q34 0 64.5 13t52.5 35.5t35 52.5t13 64t-13 64t-35 52t-52.5 35t-64.5 13z" />
    <glyph glyph-name="afii10050" unicode="&#x490;" horiz-adv-x="626" 
d="M92 0v726h446v80h35v-110h-443v-696h-38z" />
    <glyph glyph-name="brokenbar" unicode="&#xa6;" horiz-adv-x="494" 
d="M263 349h-24v371h24v-371zM263 -176h-24v356h24v-356z" />
    <glyph glyph-name="section" unicode="&#xa7;" horiz-adv-x="654" 
d="M447 115q64 29 96 58t32 71q0 87 -153 139l-194 66q-133 -39 -133 -126q0 -38 30 -69t87 -54zM136 11v-15q0 -66 47.5 -102t136.5 -36q91 0 144.5 32t53.5 89q0 41 -32 69.5t-95 51.5l-190 70q-76 27 -113 64.5t-37 84.5q0 100 139 154q-38 23 -55 49t-17 60
q0 33 15.5 61t44 48.5t69 32t90.5 11.5q109 0 168 -46t59 -134h-46q0 71 -45.5 109t-130.5 38q-81 0 -129 -33.5t-48 -85.5q0 -47 38.5 -74t113.5 -53l112 -40q96 -32 142.5 -72.5t46.5 -94.5q0 -49 -34 -86.5t-106 -67.5q38 -20 62 -48t24 -66q0 -33 -18 -61.5t-49.5 -49.5
t-76 -32.5t-96.5 -11.5q-111 0 -172 42.5t-61 119.5v11t2 12h43z" />
    <glyph glyph-name="afii10023" unicode="&#x401;" horiz-adv-x="694" 
d="M91 726h551v-29h-512v-312h473v-30h-473v-326h512v-29h-551v726zM208 926h39v-57h-39v57zM481 926h39v-57h-39v57z" />
    <glyph glyph-name="copyright" unicode="&#xa9;" horiz-adv-x="847" 
d="M423 715q75 0 140 -26.5t118 -79.5q51 -51 78 -116.5t27 -139.5q0 -75 -26.5 -139.5t-77.5 -114.5q-53 -53 -120 -81t-139 -28t-137.5 27.5t-116.5 80.5q-53 51 -80.5 117t-27.5 138t27.5 138t80.5 119q51 52 115 78.5t139 26.5zM423 683q-137 0 -231 -96
q-48 -48 -73.5 -108t-25.5 -126t25 -125t73 -107t107 -73.5t125 -25.5t126 26t109 74q47 45 71.5 103.5t24.5 127.5q0 68 -24.5 127t-71.5 106q-48 48 -107.5 72.5t-127.5 24.5zM547 454q-11 44 -43 68.5t-80 24.5q-67 0 -105.5 -50.5t-38.5 -144.5q0 -90 39.5 -141
t104.5 -51q51 0 86.5 29t43.5 75h37q-3 -30 -17 -55t-36.5 -43t-52.5 -28.5t-65 -10.5q-41 0 -75 15.5t-58.5 45t-38 71t-13.5 93.5q0 53 14 95t39.5 71.5t60.5 45t78 15.5q32 0 59.5 -9t49 -25.5t35 -39.5t16.5 -51h-40z" />
    <glyph glyph-name="afii10053" unicode="&#x404;" horiz-adv-x="823" 
d="M731 517q-11 44 -36.5 80.5t-63.5 62.5t-87.5 40.5t-107.5 14.5q-70 0 -128 -20t-102 -59.5t-73 -97.5t-39 -133h431v-30h-433q2 -86 26.5 -153.5t68 -114t103 -71t131.5 -24.5q60 0 113.5 17.5t95 49t70 74t39.5 93.5h44q-11 -58 -41 -107t-76.5 -84t-108 -55
t-134.5 -20q-86 0 -154.5 26.5t-116.5 76t-73.5 120.5t-25.5 160q0 90 25.5 161t74.5 120.5t120.5 75.5t163.5 26q73 0 131.5 -17t101 -47t68.5 -72t34 -93h-41v0z" />
    <glyph glyph-name="guillemotleft" unicode="&#xab;" horiz-adv-x="478" 
d="M215 412v-32l-145 -121l145 -121v-32l-181 137v32zM437 412v-32l-145 -121l145 -121v-32l-181 137v32z" />
    <glyph glyph-name="logicalnot" unicode="&#xac;" horiz-adv-x="847" 
d="M723 176h-28v209h-571v26h599v-235z" />
    <glyph glyph-name="sfthyphen" unicode="&#xad;" horiz-adv-x="455" 
d="M59 273h337v-26h-337v26z" />
    <glyph glyph-name="registered" unicode="&#xae;" horiz-adv-x="847" 
d="M423 715q73 0 138 -26.5t118 -77.5q51 -51 77.5 -116.5t26.5 -138.5q0 -74 -26 -137.5t-77 -113.5q-54 -53 -119.5 -81t-137.5 -28t-136.5 27.5t-115.5 79.5q-52 51 -79.5 116t-27.5 137t27.5 137t79.5 118q51 51 114.5 77.5t137.5 26.5zM423 683q-67 0 -125.5 -23.5
t-104.5 -71.5q-48 -48 -72.5 -107.5t-24.5 -124.5t25 -124t73 -106q47 -48 105.5 -73t123.5 -25t125.5 25.5t108.5 73.5q47 45 70.5 103t23.5 126q0 67 -24.5 126t-71.5 105q-96 96 -232 96zM435 571q87 0 129 -26.5t42 -89.5q0 -43 -27.5 -72.5t-74.5 -34.5l95 -196h-52
l-90 189h-128v-189h-43v419h149zM329 376h94q69 0 100.5 16t31.5 66q0 42 -32.5 60t-98.5 18h-95v-160z" />
    <glyph glyph-name="afii10056" unicode="&#x407;" horiz-adv-x="231" 
d="M97 727h38v-727h-38v727zM35 881h35v-62h-35v62zM162 881h35v-62h-35v62z" />
    <glyph glyph-name="degree" unicode="&#xb0;" horiz-adv-x="311" 
d="M159 738q27 0 51.5 -10.5t42.5 -28.5t28.5 -42.5t10.5 -52.5q0 -27 -10.5 -51.5t-28.5 -42.5t-42.5 -28.5t-52.5 -10.5q-29 0 -53 10t-42 28t-28 42.5t-10 52.5t10.5 52.5t28.5 42.5t42.5 28.5t52.5 10.5zM159 713q-23 0 -42.5 -8.5t-34.5 -23t-23.5 -34.5t-8.5 -43
t8.5 -43t23.5 -34.5t34.5 -23t42.5 -8.5t43 8.5t34.5 23.5t22.5 34.5t8 42.5q0 22 -8.5 42t-23 35t-34 23.5t-42.5 8.5z" />
    <glyph glyph-name="plusminus" unicode="&#xb1;" horiz-adv-x="848" 
d="M433 563v-177h276v-30h-276v-179h-30v179h-277v30h277v177h30zM709 57v-31h-583v31h583z" />
    <glyph glyph-name="afii10055" unicode="&#x406;" horiz-adv-x="232" 
d="M97 726h38v-726h-38v726z" />
    <glyph glyph-name="afii10103" unicode="&#x456;" horiz-adv-x="203" 
d="M84 522h35v-522h-35v522zM84 726h35v-45h-35v45z" />
    <glyph glyph-name="afii10098" unicode="&#x491;" horiz-adv-x="536" 
d="M76 521h411v60h35v-84h-411v-497h-35v521z" />
    <glyph glyph-name="mu" unicode="&#xb5;" horiz-adv-x="540" 
d="M143 511l-62 -289q-5 -26 -8.5 -46.5t-3.5 -36.5q0 -66 34.5 -101t97.5 -35q66 0 121 59.5t80 170.5l61 278h37l-100 -441q-3 -15 -3 -29q0 -35 42 -35h9t9 1l-6 -31q-7 -2 -14 -2h-12q-63 0 -63 56q0 7 1.5 16.5t3.5 21.5q-65 -100 -177 -100q-57 0 -94.5 26.5
t-48.5 74.5l-65 -294h-36l163 736h34z" />
    <glyph glyph-name="paragraph" unicode="&#xb6;" horiz-adv-x="494" 
d="M450 739v-29h-67v-707h-28v707h-99v-707h-28v389q-90 4 -140 51.5t-50 122.5q0 38 14 69.5t39.5 54.5t62 36t81.5 13h215z" />
    <glyph glyph-name="periodcentered" unicode="&#xb7;" horiz-adv-x="306" 
d="M117 354q0 33 36 33t36 -33q0 -34 -36 -34t-36 34z" />
    <glyph glyph-name="afii10071" unicode="&#x451;" horiz-adv-x="649" 
d="M580 146q-8 -33 -29.5 -61t-54 -48.5t-75.5 -32t-94 -11.5q-65 0 -117 19t-88.5 55t-56 86.5t-19.5 113.5t19.5 114t56.5 87t88.5 55.5t116.5 19.5q64 0 115.5 -19.5t88 -55.5t56 -87.5t19.5 -114.5h-519q0 -63 18 -109t49.5 -76t75.5 -44.5t97 -14.5q38 0 72 9t61 25.5
t46.5 39t28.5 50.5h45zM566 294q-1 55 -20.5 96.5t-52 69t-75.5 41.5t-91 14q-49 0 -92.5 -14.5t-76.5 -42.5t-52 -69t-19 -95h479zM217 656h-34v67h34v-67zM457 656h-34v67h34v-67z" />
    <glyph glyph-name="afii61352" unicode="&#x2116;" horiz-adv-x="1290" 
d="M745 726v-726h-45l-590 676v-676h-39v726h45l590 -679v679h39zM853 440q0 89 46.5 131.5t137.5 42.5q92 0 139 -42.5t47 -131.5q0 -90 -47 -132.5t-139 -42.5q-91 0 -137.5 42.5t-46.5 132.5zM881 439q0 -74 40 -113t116 -39q78 0 117 39t39 113q0 75 -39 113.5
t-117 38.5q-76 0 -116 -38.5t-40 -113.5zM1203 185v-31h-333v31h333z" />
    <glyph glyph-name="afii10101" unicode="&#x454;" horiz-adv-x="612" 
d="M392 262h-310q3 -60 22.5 -107.5t51.5 -79.5t75.5 -49t95.5 -17q41 0 77.5 12t65 32.5t48 48.5t25.5 60h38q-5 -38 -25.5 -71t-53.5 -57.5t-78 -39t-97 -14.5q-65 0 -117 20t-89 56.5t-56.5 88t-19.5 115.5t19.5 115.5t56.5 88t89 56.5t117 20q51 0 94.5 -13t76 -35.5
t53 -52t25.5 -62.5h-40q-20 61 -76 98.5t-135 37.5q-46 0 -86 -15t-72 -44t-53.5 -71t-30.5 -97h309v-24z" />
    <glyph glyph-name="guillemotright" unicode="&#xbb;" horiz-adv-x="478" 
d="M436 275v-32l-181 -137v32l145 121l-145 121v32zM214 275v-32l-181 -137v32l145 121l-145 121v32z" />
    <glyph glyph-name="afii10105" unicode="&#x458;" horiz-adv-x="200" 
d="M125 -86q0 -34 -4 -57t-15 -37.5t-31.5 -20.5t-53.5 -6q-19 0 -34 2.5t-22 4.5l1 29q11 -4 23 -5.5t23 -2.5q29 0 44.5 8t23 22.5t9 34.5t1.5 43v589h35v-604zM125 652h-34v67h34v-67z" />
    <glyph glyph-name="afii10054" unicode="&#x405;" horiz-adv-x="727" 
d="M102 211v17q0 -47 19 -87t53.5 -68.5t83 -44.5t106.5 -16t105.5 13.5t81 37.5t52 57t18.5 72t-14 64.5t-40.5 42.5t-65 27.5t-88.5 19.5l-163 29q-88 15 -126.5 55.5t-38.5 115.5q0 45 17.5 81.5t52 63t85.5 41t118 14.5t119 -14.5t87.5 -40t54.5 -61t20 -77.5h-39
q-3 36 -20.5 66.5t-48.5 52.5t-74 34.5t-97 12.5t-97 -12.5t-74 -35t-47.5 -53.5t-16.5 -68q0 -36 14 -61.5t40.5 -43t65 -28.5t88.5 -20l146 -26q100 -17 142.5 -57.5t42.5 -118.5q0 -102 -73.5 -158.5t-219.5 -56.5q-148 0 -227 61.5t-82 169.5h40z" />
    <glyph glyph-name="afii10102" unicode="&#x455;" horiz-adv-x="563" 
d="M68 135q7 -58 63 -92.5t150 -34.5q100 0 157 32.5t57 92.5q0 47 -32.5 72t-89.5 34l-163 24q-45 6 -76.5 16t-51 26t-28.5 38.5t-9 53.5q0 66 57 104.5t175 38.5q57 0 101 -11t73.5 -29.5t44.5 -44t16 -54.5h-39q-8 52 -62 83t-145 31q-85 0 -134 -31.5t-49 -82.5
q0 -53 40 -76t106 -32l144 -22q44 -6 74.5 -16t49.5 -25.5t27.5 -37.5t8.5 -52q0 -80 -62.5 -120t-196.5 -40q-118 0 -178 43t-65 112h37z" />
    <glyph glyph-name="afii10104" unicode="&#x457;" horiz-adv-x="203" 
d="M84 522h35v-522h-35v522zM61 659h-34v67h34v-67zM176 659h-34v67h34v-67z" />
    <glyph glyph-name="afii10017" unicode="&#x410;" horiz-adv-x="772" 
d="M386 696l-198 -427h396zM408 726l344 -726h-44l-109 237h-426l-109 -237h-44l344 726h44z" />
    <glyph glyph-name="afii10018" unicode="&#x411;" horiz-adv-x="751" 
d="M436 32q104 0 161.5 39t57.5 125q0 51 -25.5 84.5t-65 53t-89 27.5t-97.5 8h-248v-337h306zM92 726h534v-29h-496v-301h252q91 0 151.5 -17.5t96.5 -45.5t51 -62.5t15 -68.5q0 -107 -59.5 -154.5t-193.5 -47.5h-351v726z" />
    <glyph glyph-name="afii10019" unicode="&#x412;" horiz-adv-x="751" 
d="M436 32q104 0 161.5 39t57.5 125q0 51 -25.5 84.5t-65 53t-89 27.5t-97.5 8h-248v-337h306zM382 396q52 0 96.5 7.5t77.5 25.5t51.5 47t18.5 72q0 80 -51.5 114.5t-145.5 34.5h-299v-301h252zM92 726h352q117 0 170 -42t53 -130q0 -28 -7.5 -56t-27 -52t-52.5 -41
t-85 -22q99 -11 150 -61.5t51 -119.5q0 -107 -59.5 -154.5t-193.5 -47.5h-351v726z" />
    <glyph glyph-name="afii10020" unicode="&#x413;" horiz-adv-x="582" 
d="M92 0v726h481v-29h-443v-697h-38z" />
    <glyph glyph-name="afii10021" unicode="&#x414;" horiz-adv-x="773" 
d="M215 697v-327q0 -56 -5 -101t-16.5 -84.5t-29.5 -76.5t-44 -76h526l-1 665h-430zM74 31q27 35 46.5 71.5t32 80t18 96.5t5.5 122v325h508v-694h78v-221h-38v189h-665v-189h-38v221h53v-1z" />
    <glyph glyph-name="afii10022" unicode="&#x415;" horiz-adv-x="694" 
d="M91 726h551v-29h-513v-312h474v-30h-474v-323h513v-32h-551v726z" />
    <glyph glyph-name="afii10024" unicode="&#x416;" horiz-adv-x="1023" 
d="M497 0v243l-156 157l-284 -400h-47l302 428l-292 298h46l431 -443v443h38v-443l431 443h46l-292 -298l302 -428h-47l-284 400l-156 -157v-243h-38z" />
    <glyph glyph-name="afii10025" unicode="&#x417;" horiz-adv-x="751" 
d="M126 557q0 40 16 74.5t48.5 60t82 40t115.5 14.5q62 0 113 -11.5t87.5 -34.5t56.5 -57.5t20 -81.5q0 -67 -35.5 -112t-123.5 -64q46 -6 81.5 -24t59.5 -44.5t36 -58.5t12 -66q0 -49 -17 -88.5t-52.5 -67t-91.5 -42t-134 -14.5q-66 0 -120 11.5t-92.5 36.5t-59.5 64.5
t-21 96.5h38q0 -50 18.5 -83.5t52.5 -54.5t81 -30t103 -9q67 0 115.5 13.5t79 36.5t45 54t14.5 66q0 88 -62.5 136.5t-167.5 48.5h-93v30h77q88 0 140 29q35 18 55.5 49t20.5 81q0 42 -20 72t-53 49t-75.5 28t-87.5 9q-43 0 -83.5 -8.5t-71.5 -27t-50 -48.5t-19 -73h-38z
" />
    <glyph glyph-name="afii10026" unicode="&#x418;" horiz-adv-x="853" 
d="M722 0v676l-596 -676h-39v726h39v-668l596 668h39v-726h-39z" />
    <glyph glyph-name="afii10027" unicode="&#x419;" horiz-adv-x="853" 
d="M717 0v676l-596 -676h-39v726h39v-667l596 667h39v-726h-39zM291 932q0 -29 10.5 -48.5t28.5 -31.5t41 -17t47 -5q25 0 48.5 4.5t42 16.5t30 31.5t11.5 49.5h24q0 -66 -40.5 -100t-118.5 -34q-72 0 -110 35t-38 99h24z" />
    <glyph glyph-name="afii10028" unicode="&#x41a;" horiz-adv-x="722" 
d="M91 726h39v-443l501 443h46l-335 -298l346 -428h-47l-328 404l-183 -161v-243h-39v726z" />
    <glyph glyph-name="afii10029" unicode="&#x41b;" horiz-adv-x="802" 
d="M174 350q0 -102 -8 -172.5t-24.5 -114.5t-41.5 -63.5t-58 -19.5q-15 0 -24 1.5t-16 3.5l3 31q2 0 13 -2t21 -2q25 0 43.5 22.5t30.5 69.5t17.5 121t5.5 176v325h573v-726h-37v697h-498v-347z" />
    <glyph glyph-name="afii10030" unicode="&#x41c;" horiz-adv-x="1030" 
d="M131 656v-656h-38v726h44l378 -690l378 690h44v-726h-38v655l-361 -655h-44z" />
    <glyph glyph-name="afii10031" unicode="&#x41d;" horiz-adv-x="797" 
d="M89 726h40v-322h538v322h40v-726h-40v375h-538v-375h-40v726z" />
    <glyph glyph-name="afii10032" unicode="&#x41e;" horiz-adv-x="877" 
d="M438 12q79 0 143 24.5t109 70t69 110.5t24 146t-24 146t-69 110.5t-109 70t-143 24.5t-143 -24.5t-109 -70t-69 -110.5t-24 -146t24 -146t69 -110.5t109 -70t143 -24.5zM824 363q0 -90 -26 -161t-75.5 -120.5t-121 -75.5t-163.5 -26t-163.5 26t-120.5 75.5t-74.5 120.5
t-25.5 161t25.5 161t74.5 120.5t120.5 75.5t163.5 26t163.5 -26t121 -75.5t75.5 -120.5t26 -161z" />
    <glyph glyph-name="afii10033" unicode="&#x41f;" horiz-adv-x="797" 
d="M89 726h618v-726h-39v697h-540v-697h-39v726z" />
    <glyph glyph-name="afii10034" unicode="&#x420;" horiz-adv-x="694" 
d="M92 726h293q138 0 200.5 -48.5t62.5 -156.5t-63 -156.5t-200 -48.5h-255v-316h-38v726zM371 347q57 0 101 8t74 28t45 54t15 85t-15 84.5t-45 53.5t-74 28.5t-101 8.5h-241v-350h241z" />
    <glyph glyph-name="afii10035" unicode="&#x421;" horiz-adv-x="823" 
d="M731 517q-11 44 -36.5 80.5t-63.5 62.5t-87.5 40t-107.5 14q-78 0 -141.5 -24.5t-108.5 -70.5t-69.5 -110.5t-24.5 -145.5q0 -80 24 -145t67.5 -110.5t104 -70.5t133.5 -25q60 0 113.5 17.5t95 49t70 74t39.5 93.5h44q-11 -58 -41 -107t-76.5 -84t-108 -55t-134.5 -20
q-86 0 -154.5 26.5t-116.5 76t-73.5 120.5t-25.5 160q0 90 25.5 161t74.5 120.5t120.5 75.5t163.5 26q73 0 131.5 -17t101 -47t68.5 -72t34 -93h-41v0z" />
    <glyph glyph-name="afii10036" unicode="&#x422;" horiz-adv-x="638" 
d="M300 697h-298v29h634v-29h-298v-697h-38v697z" />
    <glyph glyph-name="afii10037" unicode="&#x423;" horiz-adv-x="727" 
d="M53 726l314 -593l271 593h42l-301 -639q-17 -33 -35 -52t-36.5 -29t-36.5 -13.5t-35 -4.5q-5 0 -13.5 0.5t-17.5 2t-16.5 3t-10.5 2.5l8 33q8 -5 16 -7t20 -2q23 1 39.5 3.5t29 8.5t22.5 16.5t19 27.5l15 26l-339 624h45z" />
    <glyph glyph-name="afii10038" unicode="&#x424;" horiz-adv-x="946" 
d="M60 368q0 133 98 207.5t288 74.5v76h38v-76q190 0 288 -74.5t98 -207.5q0 -66 -25 -118t-73.5 -88.5t-121 -56t-166.5 -19.5v-90h-38v90q-95 0 -167 19.5t-120.5 56t-73.5 88.5t-25 118zM484 115q81 0 145 16t108.5 48t68 79.5t23.5 109.5q0 124 -91.5 189t-253.5 65
v-507zM446 622q-162 0 -253.5 -65t-91.5 -189q0 -62 23.5 -109.5t68 -79.5t108.5 -48t145 -16v507z" />
    <glyph glyph-name="afii10039" unicode="&#x425;" horiz-adv-x="702" 
d="M332 370l-278 356h47l252 -328l257 328h47l-278 -357l292 -369h-50l-266 340l-264 -340h-53z" />
    <glyph glyph-name="afii10040" unicode="&#x426;" horiz-adv-x="798" 
d="M90 726h39v-694h538v694h38v-694h64v-221h-39v189h-640v726z" />
    <glyph glyph-name="afii10041" unicode="&#x427;" horiz-adv-x="769" 
d="M102 726v-177q0 -64 27 -106t68 -67t89.5 -35t92.5 -10q24 0 55.5 2t66 6.5t70.5 11.5t69 18v357h39v-726h-39v336q-60 -17 -130 -26t-142 -9q-50 0 -103.5 12.5t-98.5 41.5t-74 77t-29 119v175h39z" />
    <glyph glyph-name="afii10042" unicode="&#x428;" horiz-adv-x="1120" 
d="M91 0v726h38v-694h411v694h38v-694h411l1 694h37v-726h-936z" />
    <glyph glyph-name="afii10043" unicode="&#x429;" horiz-adv-x="1118" 
d="M91 726h38v-694h411v694h38v-694h410v694h39v-694h62v-221h-38v189h-960v726z" />
    <glyph glyph-name="afii10044" unicode="&#x42a;" horiz-adv-x="838" 
d="M523 32q104 0 161.5 39t57.5 125q0 51 -25.5 84.5t-65 53t-89 27.5t-97.5 8h-248v-337h306zM178 697h-208v29h247v-330h252q91 0 151.5 -17.5t96.5 -45.5t51 -62.5t15 -68.5q0 -107 -59.5 -154.5t-193.5 -47.5h-352v697z" />
    <glyph glyph-name="afii10045" unicode="&#x42b;" horiz-adv-x="961" 
d="M429 32q104 0 161 39t57 125q0 51 -25.5 84.5t-65 53t-89 27.5t-97.5 8h-248v-337h307zM84 726h38v-330h252q91 0 152 -17.5t97 -45.5t51 -62.5t15 -68.5q0 -107 -60 -154.5t-193 -47.5h-352v726zM829 726h37v-726h-37v726z" />
    <glyph glyph-name="afii10046" unicode="&#x42c;" horiz-adv-x="743" 
d="M428 32q104 0 161.5 39t57.5 125q0 51 -25.5 84.5t-65 53t-89 27.5t-97.5 8h-248v-337h306zM84 726h38v-330h252q91 0 151.5 -17.5t96.5 -45.5t51 -62.5t15 -68.5q0 -107 -59.5 -154.5t-193.5 -47.5h-351v726z" />
    <glyph glyph-name="afii10047" unicode="&#x42d;" horiz-adv-x="823" 
d="M746 404q-6 72 -33 129t-71.5 97.5t-104.5 62t-133 21.5q-58 0 -107.5 -14t-87.5 -40t-64 -62.5t-36 -80.5h-41q7 51 33 93t69 72t101.5 47t131.5 17q92 0 163.5 -26t120.5 -75.5t74.5 -120.5t25.5 -161q0 -89 -26 -160t-74 -120.5t-116.5 -76t-153.5 -26.5
q-74 0 -135.5 20t-108 55t-76.5 84t-40 107h44q11 -51 39.5 -93.5t70 -74t95 -49t113.5 -17.5q73 0 133.5 25t104 70.5t67.5 110.5t24 145v11h-429v30h427z" />
    <glyph glyph-name="afii10048" unicode="&#x42e;" horiz-adv-x="1173" 
d="M735 12q79 0 142.5 24.5t108.5 70t69 110.5t24 146t-24 146t-69 110.5t-109 70t-143 24.5t-143 -24.5t-109 -70t-69 -110.5t-24 -146t24 -146t69 -110.5t109 -70t143 -24.5h1zM86 726h38v-321h224q19 168 118.5 254.5t267.5 86.5q92 0 163.5 -26t121 -75.5t75.5 -120.5
t26 -161t-26 -161t-75.5 -120.5t-121 -75.5t-163.5 -26q-182 0 -282.5 101.5t-103.5 294.5h-224v-376h-38v726z" />
    <glyph glyph-name="afii10049" unicode="&#x42f;" horiz-adv-x="712" 
d="M590 0v330h-305l-223 -330h-44l222 333q-72 2 -115.5 21.5t-66.5 49t-30 65t-7 70.5q0 94 62.5 140.5t196.5 46.5h349v-726h-39zM298 697q-57 0 -101 -8.5t-74 -28t-45.5 -51.5t-15.5 -80q0 -92 57 -130.5t169 -38.5h302v337h-292z" />
    <glyph glyph-name="afii10065" unicode="&#x430;" 
d="M517 312q-19 -17 -41.5 -25.5t-49.5 -12.5t-58 -6.5t-67 -8.5q-47 -7 -84 -14.5t-63.5 -20.5t-40.5 -34.5t-14 -56.5q0 -26 12 -48t33.5 -38.5t51.5 -25.5t67 -9q54 0 100.5 14.5t80.5 40.5t53.5 62t19.5 80v103zM616 6q-4 -1 -16.5 -3.5t-26.5 -2.5q-16 0 -26.5 3
t-17 14.5t-9.5 34t-3 60.5q-19 -36 -48 -60t-63.5 -38t-72.5 -20t-76 -6q-100 0 -147 37.5t-47 109.5q0 34 12 59t39 45t74.5 29.5t116.5 18.5q51 7 90.5 11t66.5 13.5t41 28.5t14 56q0 57 -49 85.5t-140 28.5q-101 0 -153 -34.5t-52 -94.5h-35q0 75 61 116t184 41
q74 0 120.5 -14.5t72.5 -46.5q20 -24 24 -53.5t4 -71.5v-250q0 -14 0.5 -27t4.5 -23t13.5 -16t27.5 -6q4 0 8.5 1.5l7.5 2.5v-28z" />
    <glyph glyph-name="afii10066" unicode="&#x431;" 
d="M92 405q45 63 102 91t124 28q69 0 120 -20t84.5 -55t50.5 -83.5t17 -106.5q0 -62 -18.5 -112.5t-54 -85.5t-86 -54t-113.5 -19q-70 0 -121 21t-84.5 60t-50 93.5t-16.5 122.5q0 69 7.5 135t32.5 120t72 92t125 50q98 15 146 21t48 23h42q0 -6 -2 -12.5t-9 -12.5
t-21 -11.5t-37 -9.5q-21 -4 -58.5 -8.5t-79 -13t-80 -21t-62.5 -33.5q-46 -39 -68 -100t-22 -125zM318 16q61 0 105.5 20.5t73.5 54t43 77.5t14 91q0 51 -14 94.5t-42.5 75t-73.5 49.5t-106 18q-53 0 -96.5 -18t-75 -49.5t-49 -73.5t-17.5 -89q0 -51 16 -96t46.5 -79.5
t75 -54.5t100.5 -20z" />
    <glyph glyph-name="afii10067" unicode="&#x432;" horiz-adv-x="584" 
d="M316 281q30 0 60.5 7.5t55 21t40 33t15.5 44.5q0 64 -36.5 86.5t-114.5 22.5h-223v-215h203zM79 524h284q87 0 123.5 -31t36.5 -96q0 -52 -33 -83.5t-96 -43.5q42 -5 70 -17t45 -29t24.5 -38t7.5 -44q0 -37 -9 -63.5t-30 -44t-55 -26t-85 -8.5h-283v524zM113 29h238
q83 0 118.5 26t35.5 86q0 29 -14 50.5t-39.5 36t-60 22t-75.5 7.5h-203v-228z" />
    <glyph glyph-name="afii10068" unicode="&#x433;" horiz-adv-x="536" 
d="M76 524h446v-28h-411v-496h-35v524z" />
    <glyph glyph-name="afii10069" unicode="&#x434;" horiz-adv-x="619" 
d="M509 28v468h-333v-193q0 -45 -3 -81t-11.5 -67.5t-23.5 -62t-38 -64.5h409zM66 29q25 31 40 61t23 66t10.5 80.5t2.5 105.5v182h401v-496h62v-198h-34v170h-517v-170h-34v198h46v1z" />
    <glyph glyph-name="afii10070" unicode="&#x435;" horiz-adv-x="649" 
d="M580 142q-8 -32 -27.5 -59.5t-51 -48.5t-75 -33t-99.5 -12q-65 0 -117 19t-88.5 55t-56 86.5t-19.5 113.5t19.5 114t56.5 87t88.5 55.5t116.5 19.5q64 0 115.5 -19.5t88 -55.5t56 -86.5t19.5 -113.5h-524q8 -126 73.5 -186t171.5 -60q91 0 147.5 35.5t69.5 88.5h36z
M566 288q0 55 -19.5 96.5t-52.5 69.5t-76 42.5t-91 14.5q-49 0 -91.5 -15t-75 -43.5t-53.5 -70t-25 -94.5h484z" />
    <glyph glyph-name="afii10072" unicode="&#x436;" horiz-adv-x="905" 
d="M468 524v-277l341 277h51l-243 -196l279 -328h-45l-262 306l-121 -99v-207h-34v207l-121 99l-262 -306h-45l279 328l-243 196h51l341 -277v277h34z" />
    <glyph glyph-name="afii10073" unicode="&#x437;" horiz-adv-x="584" 
d="M90 411q0 29 19 55.5t53 43.5q29 16 68 22t81 6q60 0 102 -10.5t69 -29t39 -43.5t12 -53q0 -18 -6.5 -36.5t-21.5 -34.5t-39.5 -28t-59.5 -16q31 -5 58.5 -16t48 -29t32 -43.5t11.5 -58.5q0 -74 -62 -113t-180 -39q-58 0 -103.5 11t-77 31.5t-48.5 48t-17 60.5h36
q0 -25 15.5 -47.5t43.5 -39t66.5 -26t84.5 -9.5q43 0 80.5 8t65.5 24t44 38.5t16 51.5q0 17 -7 40.5t-26 44.5t-52.5 35.5t-86.5 14.5h-86v24h86q28 0 54.5 5.5t47.5 18t34 32t13 48.5q0 31 -13.5 52t-37.5 33.5t-58 17.5t-76 5q-37 0 -68.5 -4.5t-56.5 -16.5
q-27 -13 -44 -34t-17 -44h-36z" />
    <glyph glyph-name="afii10074" unicode="&#x438;" horiz-adv-x="641" 
d="M79 524h34v-482l410 482h41v-524h-34v478l-410 -478h-41v524z" />
    <glyph glyph-name="afii10075" unicode="&#x439;" horiz-adv-x="641" 
d="M79 524h34v-482l410 482h41v-524h-34v478l-410 -478h-41v524zM209 739q0 -23 9.5 -38.5t25 -25.5t35.5 -14t41 -4t42 4t37.5 13t26.5 25t10 40h21q0 -53 -35 -80.5t-104 -27.5q-63 0 -96.5 28.5t-33.5 79.5h21z" />
    <glyph glyph-name="afii10076" unicode="&#x43a;" horiz-adv-x="590" 
d="M82 524h34v-285l352 285h45l-232 -188l288 -336h-41l-271 319l-141 -116v-203h-34v524z" />
    <glyph glyph-name="afii10077" unicode="&#x43b;" horiz-adv-x="656" 
d="M546 0v496h-379v-121q0 -29 -1 -61.5t-2.5 -64.5t-3.5 -60t-5 -48q-10 -78 -36 -115.5t-78 -37.5q-14 0 -26 3l-14 4l5 28q5 -2 13.5 -4.5t13.5 -2.5q17 0 34.5 8t31.5 30q9 14 15.5 40.5t10.5 73.5t6 118t2 173v65h447v-524h-34z" />
    <glyph glyph-name="afii10078" unicode="&#x43c;" horiz-adv-x="769" 
d="M691 524v-524h-33v377l6 101l-263 -460h-34l-262 460l5 -101v-377h-33v524h39l268 -476l268 476h39z" />
    <glyph glyph-name="afii10079" unicode="&#x43d;" horiz-adv-x="641" 
d="M78 524h34v-237h418v237h34v-524h-34v259h-418v-259h-34v524z" />
    <glyph glyph-name="afii10080" unicode="&#x43e;" horiz-adv-x="654" 
d="M608 266q0 -65 -19.5 -116.5t-55.5 -87.5t-88 -55t-118 -19t-118 19.5t-88.5 55.5t-55.5 88t-19 117q0 61 19.5 111t56.5 85t88.5 54.5t116.5 19.5q64 0 116 -18.5t89 -53.5t56.5 -85.5t19.5 -114.5zM572 266q0 56 -18 101.5t-50 77t-77.5 48.5t-99.5 17q-55 0 -100 -17
t-77.5 -49t-50 -77t-17.5 -101t17.5 -102t50 -79t77.5 -51t100 -18q54 0 99.5 18t77.5 51t50 79t18 102z" />
    <glyph glyph-name="afii10081" unicode="&#x43f;" horiz-adv-x="641" 
d="M78 524h487v-524h-34v496h-419v-496h-34v524z" />
    <glyph glyph-name="afii10082" unicode="&#x440;" horiz-adv-x="682" 
d="M116 -201h-34v725h34v-139q19 45 46.5 74.5t59.5 47t67.5 24.5t70.5 7q64 0 115.5 -20t87.5 -56t55.5 -87t19.5 -113t-19.5 -112.5t-55.5 -86.5t-87.5 -55.5t-115.5 -19.5q-34 0 -70 7.5t-69 24.5t-60.5 45t-44.5 70v-336zM602 262q0 55 -17.5 100.5t-50 78.5t-77 51
t-98.5 18t-98.5 -18t-77 -50.5t-50 -78.5t-17.5 -101q0 -54 17.5 -99.5t50 -78t77 -50.5t98.5 -18t98.5 18t77 51t50 78t17.5 99z" />
    <glyph glyph-name="afii10083" unicode="&#x441;" horiz-adv-x="612" 
d="M581 168q-5 -38 -25.5 -70.5t-53.5 -57t-78 -38.5t-97 -14q-65 0 -117 19.5t-89 55.5t-56.5 87.5t-19.5 115.5t19.5 114.5t56.5 85.5t89 53.5t117 18.5q51 0 94.5 -12t76 -32.5t53 -49t25.5 -61.5h-40q-20 61 -76 94t-135 33q-53 0 -97.5 -17t-77 -48.5t-51 -77
t-18.5 -101.5t18 -102t50.5 -79t78 -51t99.5 -18q41 0 77.5 12t65 32.5t48 48t25.5 59.5h38z" />
    <glyph glyph-name="afii10084" unicode="&#x442;" horiz-adv-x="514" 
d="M240 0v500h-229v24h493v-24h-229v-500h-35z" />
    <glyph glyph-name="afii10085" unicode="&#x443;" horiz-adv-x="535" 
d="M250 -78q-19 -32 -32.5 -55t-30.5 -38t-41 -22.5t-63 -7.5q-13 0 -25.5 2t-19.5 4v28q7 -2 23 -4t31 -2q28 0 49 10t38.5 29.5t33.5 49t33 68.5l-248 540h42l223 -515l225 515h39l-277 -602v0z" />
    <glyph glyph-name="afii10086" unicode="&#x444;" horiz-adv-x="1130" 
d="M547 -202v335q-29 -79 -86.5 -114.5t-134.5 -35.5q-57 0 -102.5 20t-78 57t-49.5 88.5t-17 113.5q0 63 17.5 113t50 85t79 54t104.5 19q31 0 65 -10t64.5 -29.5t54 -50t33.5 -70.5v319h34v-319q10 40 33.5 70.5t54 50t64.5 29.5t65 10q58 0 104.5 -19t79 -54t50 -85
t17.5 -113q0 -62 -17 -113.5t-49.5 -88.5t-78 -57t-102.5 -20q-77 0 -134.5 35.5t-86.5 114.5v-335h-34zM1013 261q0 54 -15.5 99t-43.5 77t-68 50t-89 18q-50 0 -90 -19t-68 -53t-43 -80.5t-15 -101.5q0 -21 3.5 -39.5t8.5 -35.5q20 -83 75.5 -124t131.5 -41
q49 0 88.5 18.5t67 52t42.5 79.5t15 100zM115 261q0 -54 15 -100t42.5 -79.5t67 -52t88.5 -18.5q76 0 131.5 40.5t75.5 123.5q5 17 8.5 35t3.5 41q0 55 -15 101.5t-43 80.5t-68 53t-90 19q-49 0 -89 -17.5t-68 -50t-43.5 -77.5t-15.5 -99z" />
    <glyph glyph-name="afii10087" unicode="&#x445;" horiz-adv-x="562" 
d="M27 0l237 278l-211 246h42l189 -221l184 221h41l-208 -244l240 -280h-39l-220 257l-218 -257h-37z" />
    <glyph glyph-name="afii10088" unicode="&#x446;" horiz-adv-x="640" 
d="M529 29v495h35v-495h63v-199h-34v170h-514v524h34v-495h416z" />
    <glyph glyph-name="afii10089" unicode="&#x447;" horiz-adv-x="617" 
d="M540 0h-34v227q-32 -11 -67.5 -17.5t-66.5 -11t-54 -6t-31 -1.5q-48 0 -90.5 8.5t-74 29.5t-50 57t-18.5 90v148h33v-148q0 -47 17 -77t45 -47.5t64.5 -24.5t75.5 -7q12 0 36 2t54 6t63 11t64 18v267h34v-524z" />
    <glyph glyph-name="afii10090" unicode="&#x448;" horiz-adv-x="931" 
d="M111 524v-496h339v496h34v-496h339v496h34v-524h-780v524h34z" />
    <glyph glyph-name="afii10091" unicode="&#x449;" horiz-adv-x="932" 
d="M78 524h34v-496h339v496h34v-496h339v496h34v-496h62v-198h-34v170h-808v524z" />
    <glyph glyph-name="afii10092" unicode="&#x44a;" horiz-adv-x="667" 
d="M195 289h243q100 0 142 -40.5t42 -107.5q0 -74 -42.5 -107.5t-143.5 -33.5h-275v496h-179v28h213v-235zM195 29h241q82 0 115.5 26t33.5 86q0 56 -35 88t-116 32h-239v-232z" />
    <glyph glyph-name="afii10093" unicode="&#x44b;" horiz-adv-x="828" 
d="M114 289h249q50 0 84 -10.5t54.5 -30t29.5 -47t9 -60.5q0 -74 -42 -107.5t-143 -33.5h-276v524h35v-235zM114 29h241q82 0 115.5 26t33.5 86q0 56 -35 88t-116 32h-239v-232zM712 524h35v-524h-35v524z" />
    <glyph glyph-name="afii10094" unicode="&#x44c;" horiz-adv-x="584" 
d="M114 289h249q51 0 85 -10.5t54.5 -30t29.5 -47t9 -60.5q0 -74 -42.5 -107.5t-143.5 -33.5h-275v524h34v-235zM114 29h241q83 0 116.5 26t33.5 86q0 56 -35.5 88t-116.5 32h-239v-232z" />
    <glyph glyph-name="afii10095" unicode="&#x44d;" horiz-adv-x="612" 
d="M301 16q54 0 99 18.5t78 51t51 77.5t18 99h-311v28h311q0 47 -19.5 87t-53 69.5t-78 46.5t-93.5 17q-79 0 -135 -33t-76 -94h-40q5 33 25.5 61.5t53 49t76 32.5t94.5 12q65 0 117 -18.5t89 -53.5t56.5 -85.5t19.5 -114.5t-19.5 -115.5t-56.5 -87.5t-89 -55.5t-117 -19.5
q-53 0 -97.5 14t-77.5 38.5t-54 57t-25 70.5h38q6 -32 25.5 -59.5t48 -48t65 -32.5t77.5 -12z" />
    <glyph glyph-name="afii10096" unicode="&#x44e;" horiz-adv-x="905" 
d="M862 266q0 -65 -19.5 -116.5t-55.5 -87.5t-88 -55t-118 -19t-118 19.5t-88.5 55.5t-55.5 87.5t-19 116.5h-171v-267h-34v524h34v-233h171q8 118 82.5 182.5t198.5 64.5q64 0 116 -18.5t89 -53.5t56.5 -85.5t19.5 -114.5zM826 266q0 56 -18 101.5t-50 77t-77.5 48.5
t-99.5 17q-55 0 -100 -17t-77.5 -48.5t-50.5 -76.5t-18 -101t18 -102t50.5 -79t77.5 -51.5t100 -18.5q54 0 99.5 18t77.5 51t50 79t18 102z" />
    <glyph glyph-name="afii10097" unicode="&#x44f;" horiz-adv-x="582" 
d="M250 232l-150 -232h-35l146 232q-46 4 -77 17t-50 32t-27 43.5t-8 53.5q0 74 44.5 110t145.5 36h272v-524h-34v232h-227zM477 496h-238q-83 0 -118 -28.5t-35 -88.5q0 -56 35 -87.5t117 -31.5h239v236z" />
    <glyph glyph-name="quotedbl" unicode="&#x22;" horiz-adv-x="258" 
d="M65 458h-14v246h14v-246zM208 458h-15v246h15v-246z" />
    <glyph glyph-name="exclam" unicode="!" horiz-adv-x="294" 
d="M124 51h47v-51h-47v51zM128 467v259h39v-260l-14 -287h-11z" />
    </font>
</defs>
</svg>
